<svg width="166" height="54" viewBox="0 0 166 54" fill="none" xmlns="http://www.w3.org/2000/svg">
<path d="M11.5693 36.137C10.0276 36.1622 8.493 35.9227 7.03232 35.4289C5.81651 35.0122 4.66461 34.4283 3.6098 33.694C2.7602 33.1002 1.97197 32.423 1.25683 31.6725C1.04292 31.4394 0.846126 31.2255 0.670722 31.0308C0.445804 30.7753 0.313377 30.4515 0.294753 30.1116C0.276129 29.7717 0.372396 29.4355 0.568051 29.1569L1.06218 28.4531C1.19368 28.2658 1.36593 28.1107 1.56599 27.9995C1.76604 27.8884 1.98869 27.824 2.2172 27.8112C2.44572 27.7984 2.67416 27.8376 2.88535 27.9258C3.09654 28.0141 3.28499 28.149 3.43654 28.3205L3.45366 28.3376C4.05148 29.0013 4.71114 29.6066 5.42373 30.1452C6.25744 30.7775 7.17635 31.2889 8.15319 31.664C9.28097 32.0904 10.4793 32.2994 11.6848 32.2801C12.8467 32.2968 13.9995 32.0732 15.0709 31.6233C16.0485 31.214 16.8913 30.5379 17.5031 29.6724C18.1134 28.8168 18.4186 27.7472 18.4186 26.4637C18.4449 25.5022 18.2161 24.5508 17.7555 23.7064C17.2991 22.926 16.6751 22.2568 15.9287 21.7469C15.0707 21.1556 14.1565 20.6504 13.1993 20.2388C12.1597 19.7782 11.0374 19.3161 9.83236 18.8526C8.97674 18.5104 8.11469 18.1103 7.24622 17.6526C6.37228 17.1942 5.55887 16.6286 4.82479 15.969C4.0822 15.3007 3.47571 14.4952 3.03867 13.5967C2.56397 12.5828 2.32972 11.473 2.35417 10.3538C2.34794 9.12645 2.59252 7.91081 3.07289 6.78139C3.54891 5.66038 4.23919 4.64308 5.10501 3.78658C6.0035 2.90254 7.06773 2.20466 8.23661 1.733C9.51835 1.22067 10.8885 0.966248 12.2688 0.984296C13.5368 0.976692 14.7969 1.18503 15.995 1.60037C17.1041 1.98051 18.1568 2.50866 19.1245 3.17051C19.5935 3.49412 20.0381 3.8516 20.455 4.24008C20.7143 4.48198 20.8803 4.80731 20.9241 5.15922C20.9679 5.51113 20.8867 5.86724 20.6946 6.16532L20.4101 6.6124C20.2943 6.79586 20.1407 6.95248 19.9595 7.07177C19.7783 7.19106 19.5738 7.27027 19.3595 7.30409C19.1452 7.33791 18.9262 7.32557 18.7171 7.26789C18.5079 7.21021 18.3136 7.10853 18.1469 6.96964C17.9886 6.83487 17.8218 6.7001 17.6464 6.56961C16.9156 6.02327 16.1065 5.59056 15.2464 5.28612C14.3111 4.95143 13.3241 4.78415 12.3308 4.79198C11.0573 4.79198 9.97996 5.05581 9.09867 5.58347C8.2539 6.0716 7.55519 6.77697 7.0751 7.62635C6.61599 8.4403 6.37573 9.35937 6.37776 10.2939C6.35377 11.0459 6.53415 11.7904 6.89969 12.448C7.2541 13.0431 7.73363 13.554 8.30507 13.9454C8.92933 14.3764 9.59674 14.7414 10.2965 15.0342C11.0352 15.348 11.7946 15.6489 12.5747 15.937C13.9708 16.4846 15.2913 17.0493 16.5362 17.6312C17.7113 18.1699 18.8149 18.8526 19.8218 19.6634C20.7528 20.422 21.5118 21.3699 22.0486 22.4442C22.5891 23.5267 22.8593 24.8337 22.8593 26.3653C22.8593 28.4317 22.3702 30.1937 21.3919 31.6512C20.3977 33.1215 19.0059 34.2788 17.379 34.9882C15.5466 35.7813 13.5656 36.173 11.5693 36.137V36.137Z" fill="#202020"/>
<path d="M35.3195 33.985V21.133C35.3195 20.8502 35.2402 20.573 35.0906 20.333L24.9129 3.94493C24.7711 3.71566 24.6929 3.45271 24.6865 3.18318C24.68 2.91365 24.7456 2.64729 24.8763 2.41151C25.0071 2.17573 25.1983 1.97906 25.4303 1.84176C25.6623 1.70446 25.9267 1.63149 26.1963 1.63037H27.6445C27.9056 1.63023 28.1623 1.69751 28.3897 1.82567C28.6172 1.95384 28.8077 2.13856 28.9429 2.36196L36.0917 14.2022C36.2268 14.4253 36.4172 14.6099 36.6444 14.7379C36.8717 14.866 37.1281 14.9333 37.389 14.9333C37.6499 14.9333 37.9064 14.866 38.1336 14.7379C38.3609 14.6099 38.5513 14.4253 38.6864 14.2022L45.8544 2.35982C45.9896 2.13713 46.1799 1.95303 46.407 1.82526C46.634 1.6975 46.8901 1.63038 47.1507 1.63037H48.601C48.8708 1.63081 49.1357 1.70336 49.3681 1.8405C49.6005 1.97764 49.7921 2.1744 49.9229 2.41042C50.0538 2.64643 50.1192 2.91313 50.1125 3.18292C50.1057 3.45271 50.027 3.71579 49.8844 3.94493L39.7067 20.333C39.5571 20.573 39.4778 20.8502 39.4778 21.133V33.985C39.4778 34.1842 39.4386 34.3814 39.3624 34.5654C39.2862 34.7494 39.1744 34.9166 39.0336 35.0575C38.8928 35.1983 38.7256 35.31 38.5416 35.3862C38.3576 35.4624 38.1604 35.5017 37.9612 35.5017H36.8275C36.4268 35.4994 36.0432 35.3386 35.7606 35.0544C35.4781 34.7703 35.3195 34.3858 35.3195 33.985Z" fill="#202020"/>
<path d="M54.3169 33.985V3.14489C54.3169 2.94582 54.3561 2.7487 54.4324 2.56481C54.5086 2.38092 54.6204 2.21387 54.7612 2.07321C54.9021 1.93255 55.0693 1.82103 55.2533 1.74505C55.4373 1.66906 55.6344 1.63009 55.8335 1.63037H63.9235C66.1396 1.63037 68.069 2.01328 69.7118 2.77909C71.2872 3.48753 72.619 4.64451 73.5407 6.10548C74.4506 7.55582 74.9055 9.32062 74.9055 11.3999C74.9055 13.4535 74.4506 15.2432 73.5407 16.7691C72.6318 18.2932 71.3023 19.5225 69.7118 20.3094C68.0719 21.1465 66.1424 21.5644 63.9235 21.563H60.0004C59.8014 21.5627 59.6042 21.6017 59.4202 21.6776C59.2362 21.7536 59.069 21.8651 58.9281 22.0058C58.7873 22.1465 58.6755 22.3135 58.5993 22.4974C58.5231 22.6813 58.4838 22.8784 58.4838 23.0775V33.9871C58.4838 34.3894 58.324 34.7752 58.0396 35.0596C57.7552 35.344 57.3694 35.5038 56.9672 35.5038H55.8314C55.6322 35.5035 55.435 35.464 55.2511 35.3875C55.0673 35.3111 54.9002 35.1991 54.7596 35.0581C54.619 34.917 54.5075 34.7497 54.4315 34.5656C54.3556 34.3815 54.3166 34.1842 54.3169 33.985ZM58.4838 16.6173C58.4835 16.8165 58.5226 17.0138 58.5987 17.198C58.6748 17.3821 58.7865 17.5494 58.9274 17.6903C59.0683 17.8312 59.2356 17.9429 59.4197 18.019C59.6038 18.0952 59.8012 18.1342 60.0004 18.1339H62.794C64.1887 18.1638 65.5739 17.8977 66.8583 17.3531C67.9716 16.8794 68.9256 16.0962 69.607 15.0963C70.273 14.1095 70.6052 12.9115 70.6038 11.5025C70.6024 10.0936 70.2701 8.89992 69.607 7.92161C68.9238 6.94014 67.9683 6.18015 66.8583 5.7354C65.5667 5.21922 64.1847 4.96754 62.794 4.99526H60.0004C59.8013 4.99526 59.604 5.03449 59.42 5.11071C59.236 5.18693 59.0688 5.29864 58.928 5.43947C58.7872 5.58031 58.6755 5.7475 58.5993 5.93151C58.523 6.11552 58.4838 6.31274 58.4838 6.51191V16.6173Z" fill="#202020"/>
<path d="M119.213 33.985V3.14489C119.213 2.94582 119.253 2.7487 119.329 2.56481C119.405 2.38093 119.517 2.21387 119.658 2.07321C119.799 1.93255 119.966 1.82103 120.15 1.74505C120.334 1.66906 120.531 1.63009 120.73 1.63037H128.82C131.063 1.63037 133.006 2.02041 134.649 2.80049C136.222 3.51851 137.548 4.68638 138.459 6.15681C139.353 7.61286 139.801 9.36055 139.802 11.3999C139.833 13.0412 139.475 14.6665 138.756 16.1424C138.068 17.512 137.036 18.6796 135.761 19.5308C135 20.0426 134.172 20.4485 133.301 20.7373C133.071 20.8106 132.861 20.9387 132.691 21.1106C132.521 21.2825 132.395 21.4932 132.324 21.7245C132.253 21.9558 132.239 22.2008 132.283 22.4387C132.327 22.6766 132.429 22.9002 132.578 23.0903L140.412 33.0459C140.587 33.2696 140.697 33.5382 140.727 33.821C140.757 34.1039 140.708 34.3895 140.583 34.6454C140.459 34.9013 140.265 35.1171 140.024 35.2681C139.783 35.4191 139.505 35.4993 139.22 35.4995H137.798C137.564 35.4994 137.334 35.4452 137.124 35.3413C136.915 35.2374 136.733 35.0866 136.591 34.9006L127.01 22.2796C126.869 22.0937 126.686 21.9429 126.477 21.839C126.268 21.7352 126.037 21.6809 125.804 21.6806H124.89C124.488 21.6806 124.103 21.8404 123.818 22.1248C123.534 22.4093 123.374 22.795 123.374 23.1973V33.9807C123.374 34.383 123.214 34.7687 122.93 35.0532C122.645 35.3376 122.26 35.4974 121.857 35.4974H120.724C120.323 35.4957 119.94 35.3358 119.657 35.0524C119.374 34.7691 119.215 34.3854 119.213 33.985V33.985ZM123.38 16.6173C123.38 16.8165 123.419 17.0139 123.495 17.198C123.571 17.3821 123.683 17.5494 123.824 17.6903C123.965 17.8312 124.132 17.9429 124.316 18.019C124.5 18.0952 124.698 18.1342 124.897 18.1339H127.691C129.305 18.1339 130.694 17.8672 131.857 17.3339C132.96 16.8524 133.895 16.0562 134.546 15.045C135.197 13.9802 135.525 12.7499 135.492 11.5025C135.492 9.46465 134.804 7.87099 133.428 6.72155C132.051 5.57212 130.139 4.99668 127.691 4.99526H124.897C124.495 4.99526 124.109 5.15505 123.824 5.43947C123.54 5.7239 123.38 6.10967 123.38 6.51191V16.6173Z" fill="#202020"/>
<path d="M144.701 33.985V3.14489C144.701 2.94583 144.74 2.7487 144.816 2.56481C144.892 2.38093 145.004 2.21387 145.145 2.07321C145.286 1.93255 145.453 1.82103 145.637 1.74505C145.821 1.66906 146.018 1.63009 146.217 1.63037H160.776C160.975 1.63009 161.172 1.66906 161.356 1.74505C161.54 1.82103 161.707 1.93255 161.848 2.07321C161.989 2.21387 162.101 2.38093 162.177 2.56481C162.253 2.7487 162.292 2.94583 162.292 3.14489V3.78664C162.292 3.98571 162.253 4.18282 162.177 4.36671C162.101 4.5506 161.989 4.71766 161.848 4.85832C161.707 4.99899 161.54 5.1105 161.356 5.18649C161.172 5.26247 160.975 5.30144 160.776 5.30116H150.378C149.976 5.30116 149.59 5.46095 149.305 5.74538C149.021 6.02981 148.861 6.41557 148.861 6.81781V15.1798C148.861 15.3788 148.9 15.5759 148.977 15.7598C149.053 15.9437 149.165 16.1108 149.306 16.2514C149.446 16.3921 149.614 16.5036 149.798 16.5796C149.982 16.6556 150.179 16.6945 150.378 16.6943H160.277C160.68 16.6943 161.065 16.8541 161.35 17.1385C161.634 17.4229 161.794 17.8087 161.794 18.2109V18.8334C161.794 19.2357 161.634 19.6214 161.35 19.9059C161.065 20.1903 160.68 20.3501 160.277 20.3501H150.378C150.179 20.3498 149.982 20.3888 149.798 20.4648C149.614 20.5407 149.446 20.6522 149.306 20.7929C149.165 20.9336 149.053 21.1006 148.977 21.2845C148.9 21.4684 148.861 21.6655 148.861 21.8646V30.31C148.861 30.5092 148.9 30.7066 148.976 30.8907C149.052 31.0748 149.164 31.2421 149.305 31.383C149.446 31.5239 149.613 31.6356 149.797 31.7117C149.981 31.7879 150.179 31.8269 150.378 31.8266H160.769C160.969 31.8263 161.166 31.8654 161.35 31.9415C161.534 32.0176 161.702 32.1293 161.842 32.2702C161.983 32.4111 162.095 32.5784 162.171 32.7625C162.247 32.9467 162.286 33.144 162.286 33.3433V33.985C162.286 34.3873 162.126 34.773 161.842 35.0575C161.557 35.3419 161.172 35.5017 160.769 35.5017H146.211C145.81 35.5 145.426 35.3394 145.143 35.0552C144.86 34.7709 144.701 34.3861 144.701 33.985Z" fill="#202020"/>
<path d="M103.175 36.0023C102.722 36.0025 102.283 35.8478 101.931 35.5639C101.578 35.28 101.333 34.8841 101.237 34.4418C101.14 33.9995 101.198 33.5375 101.4 33.1326C101.603 32.7277 101.938 32.4042 102.349 32.216C103.64 31.6278 104.832 30.845 105.885 29.895C109.62 26.5151 111.49 21.2721 110.651 16.5381C109.43 9.65434 103.002 4.18882 96.0155 4.0947H95.8316C90.5438 4.0947 85.4571 7.10876 82.8303 11.8149C82.6677 12.1058 78.8837 19.0281 82.2506 24.8915C83.9619 27.8735 86.1972 29.572 88.7149 29.8115L88.9288 29.8287C91.1513 29.9613 93.3481 27.7558 94.1824 25.5504C94.3983 24.9695 94.5308 24.3609 94.576 23.7428C94.5892 23.4784 94.6553 23.2193 94.7703 22.9808C94.8853 22.7423 95.0469 22.5293 95.2455 22.3543C95.4442 22.1792 95.6758 22.0457 95.9269 21.9617C96.1779 21.8776 96.4433 21.8447 96.7072 21.8649C96.9712 21.885 97.2285 21.9578 97.4639 22.079C97.6993 22.2001 97.908 22.3672 98.0778 22.5704C98.2476 22.7735 98.375 23.0086 98.4525 23.2617C98.53 23.5149 98.556 23.781 98.529 24.0444C98.4551 25.0391 98.239 26.0181 97.8872 26.9515C96.5311 30.541 92.9331 34.0407 88.6892 33.7968L88.3491 33.7711C85.656 33.523 81.8185 32.1261 78.8067 26.8831C74.4109 19.227 78.8452 10.8394 79.365 9.90035C82.7212 3.88506 89.2839 0.0602562 96.0669 0.147961C100.544 0.24169 104.844 1.91718 108.204 4.87762C111.558 7.79328 113.813 11.6972 114.553 15.8643C115.622 21.9095 113.269 28.5794 108.546 32.8534C107.189 34.0793 105.652 35.0893 103.988 35.8482C103.731 35.9563 103.454 36.0088 103.175 36.0023V36.0023Z" fill="#44C2EC"/>
<path d="M99.502 40.1694C98.6275 40.1694 97.7727 39.9101 97.0456 39.4242C96.3185 38.9384 95.7518 38.2478 95.4171 37.4399C95.0825 36.6319 94.9949 35.7429 95.1655 34.8852C95.3361 34.0275 95.7572 33.2396 96.3756 32.6212C96.9939 32.0029 97.7818 31.5817 98.6394 31.4111C99.4971 31.2405 100.386 31.3281 101.194 31.6628C102.002 31.9974 102.692 32.5641 103.178 33.2913C103.664 34.0184 103.923 34.8733 103.923 35.7478C103.922 36.9201 103.456 38.0441 102.627 38.8731C101.798 39.7021 100.674 40.1683 99.502 40.1694V40.1694ZM99.502 33.7926C99.1148 33.7926 98.7363 33.9075 98.4144 34.1226C98.0925 34.3378 97.8416 34.6436 97.6936 35.0014C97.5455 35.3592 97.5068 35.7528 97.5825 36.1326C97.6582 36.5123 97.8448 36.8611 98.1188 37.1347C98.3927 37.4084 98.7417 37.5946 99.1215 37.6699C99.5013 37.7452 99.8949 37.7061 100.253 37.5576C100.61 37.4092 100.916 37.158 101.13 36.8358C101.345 36.5136 101.46 36.135 101.459 35.7478C101.458 35.2292 101.251 34.7323 100.885 34.3658C100.518 33.9993 100.021 33.7932 99.502 33.7926V33.7926Z" fill="#202020"/>
<path d="M96.6148 26.5817L86.8927 16.564C86.7045 16.3786 86.5553 16.1576 86.4537 15.9137C86.3521 15.6699 86.3003 15.4082 86.3013 15.144C86.3022 14.8798 86.356 14.6185 86.4593 14.3754C86.5627 14.1323 86.7135 13.9123 86.9031 13.7283C87.0926 13.5443 87.317 13.4001 87.5631 13.304C87.8091 13.208 88.0719 13.162 88.336 13.1689C88.6 13.1758 88.86 13.2354 89.1008 13.3442C89.3415 13.453 89.558 13.6087 89.7377 13.8024L96.4929 20.7632L102.91 13.5671C103.26 13.1725 103.753 12.9332 104.28 12.9019C104.807 12.8707 105.324 13.0499 105.719 13.4002C106.113 13.7505 106.352 14.2433 106.384 14.77C106.415 15.2967 106.236 15.8143 105.886 16.2089L96.6148 26.5817Z" fill="#44C2EC"/>
<path d="M92.2422 16.8698H88.0518C87.5259 16.8698 87.0215 16.6609 86.6496 16.289C86.2778 15.9171 86.0688 15.4127 86.0688 14.8868C86.0688 14.3609 86.2778 13.8565 86.6496 13.4846C87.0215 13.1127 87.5259 12.9038 88.0518 12.9038H92.2422C92.7681 12.9038 93.2725 13.1127 93.6443 13.4846C94.0162 13.8565 94.2251 14.3609 94.2251 14.8868C94.2251 15.4127 94.0162 15.9171 93.6443 16.289C93.2725 16.6609 92.7681 16.8698 92.2422 16.8698Z" fill="#44C2EC"/>
<path d="M104.208 16.8698H100.018C99.4917 16.8698 98.9873 16.6609 98.6154 16.289C98.2436 15.9171 98.0347 15.4127 98.0347 14.8868C98.0347 14.3609 98.2436 13.8565 98.6154 13.4846C98.9873 13.1127 99.4917 12.9038 100.018 12.9038H104.208C104.734 12.9038 105.238 13.1127 105.61 13.4846C105.982 13.8565 106.191 14.3609 106.191 14.8868C106.191 15.4127 105.982 15.9171 105.61 16.289C105.238 16.6609 104.734 16.8698 104.208 16.8698Z" fill="#44C2EC"/>
<path d="M99.3269 17.0388C100.576 17.0388 101.588 16.0264 101.588 14.7777C101.588 13.5289 100.576 12.5166 99.3269 12.5166C98.0782 12.5166 97.0659 13.5289 97.0659 14.7777C97.0659 16.0264 98.0782 17.0388 99.3269 17.0388Z" fill="#202020"/>
<path d="M93.0916 17.0388C94.3403 17.0388 95.3526 16.0264 95.3526 14.7777C95.3526 13.5289 94.3403 12.5166 93.0916 12.5166C91.8429 12.5166 90.8306 13.5289 90.8306 14.7777C90.8306 16.0264 91.8429 17.0388 93.0916 17.0388Z" fill="#202020"/>
<path d="M78.8697 48.2517C79.7591 47.9655 80.3929 47.209 80.3929 46.2073C80.3929 44.909 79.34 44.0095 78.0417 44.0095H74.2595V47.4237V51.165H75.2817V48.3846H77.8066L79.6977 51.165H80.8017V51.1037L78.8697 48.2517ZM75.2817 44.9908H78.0009C78.7573 44.9908 79.3706 45.4508 79.3706 46.2073C79.3706 46.9637 78.7573 47.4237 78.0009 47.4237H75.2817V44.9908ZM85.3176 51.2673C86.8611 51.2673 87.9958 50.4904 88.5069 49.4579L87.638 48.957C87.2905 49.7544 86.4625 50.2859 85.3482 50.2859C83.6718 50.2859 82.6394 49.0797 82.6394 47.5873C82.6394 46.0948 83.6411 44.8886 85.3176 44.8886C86.4114 44.8886 87.2394 45.4201 87.5869 46.2175L88.4558 45.7166C87.9447 44.6842 86.81 43.9073 85.2869 43.9073C83.0585 43.9073 81.6171 45.5224 81.6171 47.5873C81.6171 49.6522 83.0891 51.2673 85.3176 51.2673ZM96.4821 44.0095L93.7221 47.6895L90.9621 44.0095H90.0421V51.165H91.0643V45.7473L93.6607 49.2024H93.7834L96.3799 45.7473V51.165H97.4021V44.0095H96.4821ZM105.322 44.0095H102.51V44.9908V51.165H105.322C107.448 51.165 109.053 49.6215 109.053 47.5873C109.053 45.553 107.448 44.0095 105.322 44.0095ZM105.322 50.1837H103.533V44.9908H105.322C106.906 44.9908 108.03 46.0744 108.03 47.5873C108.03 49.1002 106.906 50.1837 105.322 50.1837ZM112.784 51.2673C114.44 51.2673 115.493 50.0917 115.493 48.6606C115.493 47.2295 114.44 46.0539 112.784 46.0539C111.128 46.0539 110.075 47.2295 110.075 48.6606C110.075 50.0917 111.128 51.2673 112.784 51.2673ZM112.784 50.3677C111.731 50.3677 111.057 49.6419 111.057 48.6606C111.057 47.6793 111.731 46.9535 112.784 46.9535C113.837 46.9535 114.512 47.6793 114.512 48.6606C114.512 49.6419 113.837 50.3677 112.784 50.3677ZM119.56 46.0539C118.794 46.0539 118.242 46.3299 117.782 46.8717V46.1562H116.821V51.165H117.782V47.8735C118.262 47.2499 118.753 46.9535 119.356 46.9535C120.092 46.9535 120.562 47.393 120.562 48.0779V51.165H121.523V48.0779C121.523 46.8308 120.797 46.0539 119.56 46.0539ZM123.784 49.0899H127.894C128.098 47.2295 126.994 46.0539 125.389 46.0539C123.784 46.0539 122.803 47.2397 122.803 48.6402C122.803 50.153 123.876 51.2673 125.614 51.2673C126.442 51.2673 127.066 51.0015 127.628 50.5619L127.209 49.785C126.739 50.1837 126.207 50.3882 125.584 50.3882C124.561 50.3882 123.948 49.8873 123.784 49.0899ZM123.774 48.2721C123.907 47.4748 124.48 46.933 125.389 46.933C126.238 46.933 126.851 47.3828 126.964 48.2721H123.774ZM137.069 48.2517C137.958 47.9655 138.592 47.209 138.592 46.2073C138.592 44.909 137.539 44.0095 136.241 44.0095H132.458V47.4237V51.165H133.481V48.3846H136.005L137.897 51.165H139.001V51.1037L137.069 48.2517ZM133.481 44.9908H136.2C136.956 44.9908 137.569 45.4508 137.569 46.2073C137.569 46.9637 136.956 47.4237 136.2 47.4237H133.481V44.9908ZM140.601 45.2361C140.989 45.2361 141.286 44.9397 141.286 44.5717C141.286 44.2037 140.989 43.9073 140.601 43.9073C140.212 43.9073 139.916 44.2037 139.916 44.5717C139.916 44.9397 140.212 45.2361 140.601 45.2361ZM141.081 46.1562H140.12V51.165H141.081V46.1562ZM146.764 46.1562V46.8206C146.334 46.2993 145.69 46.0539 144.995 46.0539C143.482 46.0539 142.409 47.2397 142.409 48.6606C142.409 50.0815 143.482 51.2673 144.995 51.2673C145.69 51.2673 146.334 51.0219 146.764 50.5006V50.889C146.764 51.8295 146.222 52.4122 145.016 52.4122C144.3 52.4122 143.769 52.2077 143.298 51.809L142.879 52.6064C143.441 53.0459 144.065 53.3117 144.985 53.3117C146.774 53.3117 147.725 52.2997 147.725 50.889V46.1562H146.764ZM146.764 49.601C146.334 50.1224 145.813 50.3677 145.159 50.3677C144.024 50.3677 143.39 49.6419 143.39 48.6606C143.39 47.6793 144.024 46.9535 145.159 46.9535C145.813 46.9535 146.334 47.1988 146.764 47.7202V49.601ZM152.104 46.0539C151.337 46.0539 150.785 46.3299 150.325 46.8717V44.0095H149.364V51.165H150.325V47.8735C150.805 47.2499 151.296 46.9535 151.899 46.9535C152.635 46.9535 153.105 47.393 153.105 48.0779V51.165H154.066V48.0779C154.066 46.8308 153.341 46.0539 152.104 46.0539ZM158.775 47.0353V46.1562H156.894V44.6228H155.933V46.1562H154.992V47.0353H155.933V49.7339C155.933 50.7766 156.71 51.2673 157.63 51.2673C158.039 51.2673 158.376 51.1855 158.713 51.0219V50.1735C158.417 50.3166 158.09 50.3882 157.763 50.3882C157.251 50.3882 156.894 50.1837 156.894 49.6726V47.0353H158.775ZM160.23 44.0095V45.5428L160.435 48.9162H161.048L161.253 45.5428V44.0095H160.23ZM160.742 51.2673C161.161 51.2673 161.478 50.9504 161.478 50.5517C161.478 50.153 161.161 49.8362 160.742 49.8362C160.322 49.8362 160.006 50.153 160.006 50.5517C160.006 50.9504 160.322 51.2673 160.742 51.2673Z" fill="black"/>
</svg>
